<?xml version="1.0" standalone="no"?><svg xmlns:xlink="http://www.w3.org/1999/xlink" xmlns="http://www.w3.org/2000/svg" viewBox="0 0 1000 666.6666666666667" preserveAspectRatio="xMaxYMax slice"><g transform="scale(0.9732360097323601)"><rect x="0" y="0" width="1027.5" height="685" fill="#ffffff"/><rect x="0" y="0" width="171.25" height="171.25" fill="#ffffff"/><g transform="translate(0,0) scale(4.281499999999999) rotate(0)"><path d="M10 0H20V10L10 20H0V10L10 0Z" fill="#4d6be8"/></g><g transform="translate(85.63,0) scale(4.281499999999999) rotate(0)"><path d="M10 0H20V10L10 20H0V10L10 0Z" fill="#dae0fa"/></g><g transform="translate(0,85.63) scale(4.281499999999999) rotate(0)"><path d="M10 0H20V10L10 20H0V10L10 0Z" fill="#9aabf2"/></g><g transform="translate(85.63,85.63) scale(4.281499999999999) rotate(0)"><path d="M10 0H20L0 20V10L10 0Z" fill="#30e1e1"/><path d="M20 10V20H10L20 10Z" fill="#30e1e1"/></g><g transform="translate(171.25,0) scale(8.5625) rotate(0)"><path d="M10 0H20V10L10 20H0V10L10 0Z" fill="#d8defa"/></g><g transform="translate(342.5,0) scale(8.5625) rotate(0)"><path d="M10 0H20V10L10 20H0V10L10 0Z" fill="#3355e4"/></g><g transform="translate(513.75,0) scale(8.5625) rotate(0)"><path d="M10 0H20V10L10 20H0V10L10 0Z" fill="#38e2e2"/></g><rect x="685" y="0" width="171.25" height="171.25" fill="#ffffff"/><g transform="translate(685,0) scale(4.281499999999999) rotate(0)"><path d="M10 0H20V10L10 20H0V10L10 0Z" fill="#ff88a4"/></g><g transform="translate(770.63,0) scale(4.281499999999999) rotate(0)"><path d="M10 0H20L0 20V10L10 0Z" fill="#4e6ce8"/><path d="M20 10V20H10L20 10Z" fill="#4e6ce8"/></g><g transform="translate(685,85.63) scale(4.281499999999999) rotate(0)"><path d="M10 0H20L0 20V10L10 0Z" fill="#fffdfe"/><path d="M20 10V20H10L20 10Z" fill="#fffdfe"/></g><g transform="translate(770.63,85.63) scale(4.281499999999999) rotate(0)"><path d="M10 0H20V10L10 20H0V10L10 0Z" fill="#7f94ee"/></g><g transform="translate(856.25,0) scale(8.5625) rotate(0)"><path d="M10 0H20V10L10 20H0V10L10 0Z" fill="#fafbfe"/></g><g transform="translate(0,171.25) scale(8.5625) rotate(0)"><path d="M10 0H20L0 20V10L10 0Z" fill="#3e5ee6"/><path d="M20 10V20H10L20 10Z" fill="#3e5ee6"/></g><rect x="171.25" y="171.25" width="171.25" height="171.25" fill="#ffffff"/><g transform="translate(171.25,171.25) scale(4.281499999999999) rotate(0)"><path d="M10 0H20V10L10 20H0V10L10 0Z" fill="#eaeefc"/></g><g transform="translate(256.88,171.25) scale(4.281499999999999) rotate(0)"><path d="M10 0H20V10L10 20H0V10L10 0Z" fill="#ff94ad"/></g><g transform="translate(171.25,256.88) scale(4.281499999999999) rotate(0)"><path d="M10 0H20L0 20V10L10 0Z" fill="#ffbdcc"/><path d="M20 10V20H10L20 10Z" fill="#ffbdcc"/></g><g transform="translate(256.88,256.88) scale(4.281499999999999) rotate(0)"><path d="M10 0H20V10L10 20H0V10L10 0Z" fill="#8eefef"/></g><g transform="translate(342.5,171.25) scale(8.5625) rotate(0)"><path d="M10 0H20L0 20V10L10 0Z" fill="#ff9ab2"/><path d="M20 10V20H10L20 10Z" fill="#ff9ab2"/></g><g transform="translate(513.75,171.25) scale(8.5625) rotate(0)"><path d="M10 0H20V10L10 20H0V10L10 0Z" fill="#ffc7d4"/></g><g transform="translate(685,171.25) scale(8.5625) rotate(0)"><path d="M10 0H20V10L10 20H0V10L10 0Z" fill="#ffeaef"/></g><g transform="translate(856.25,171.25) scale(8.5625) rotate(0)"><path d="M10 0H20V10L10 20H0V10L10 0Z" fill="#d5f9f9"/></g><g transform="translate(0,342.5) scale(8.5625) rotate(0)"><path d="M10 0H20V10L10 20H0V10L10 0Z" fill="#c6d0f8"/></g><g transform="translate(171.25,342.5) scale(8.5625) rotate(0)"><path d="M10 0H20V10L10 20H0V10L10 0Z" fill="#6e86ec"/></g><g transform="translate(342.5,342.5) scale(8.5625) rotate(0)"><path d="M10 0H20L0 20V10L10 0Z" fill="#3de3e3"/><path d="M20 10V20H10L20 10Z" fill="#3de3e3"/></g><g transform="translate(513.75,342.5) scale(8.5625) rotate(0)"><path d="M10 0H20L0 20V10L10 0Z" fill="#e5e9fc"/><path d="M20 10V20H10L20 10Z" fill="#e5e9fc"/></g><g transform="translate(685,342.5) scale(8.5625) rotate(0)"><path d="M10 0H20V10L10 20H0V10L10 0Z" fill="#2d51e4"/></g><g transform="translate(856.25,342.5) scale(8.5625) rotate(0)"><path d="M10 0H20L0 20V10L10 0Z" fill="#c6d0f8"/><path d="M20 10V20H10L20 10Z" fill="#c6d0f8"/></g><g transform="translate(0,513.75) scale(8.5625) rotate(0)"><path d="M10 0H20V10L10 20H0V10L10 0Z" fill="#87eeee"/></g><g transform="translate(171.25,513.75) scale(8.5625) rotate(0)"><path d="M10 0H20V10L10 20H0V10L10 0Z" fill="#8297ef"/></g><rect x="342.5" y="513.75" width="171.25" height="171.25" fill="#ffffff"/><g transform="translate(342.5,513.75) scale(4.281499999999999) rotate(0)"><path d="M10 0H20L0 20V10L10 0Z" fill="#ffd5df"/><path d="M20 10V20H10L20 10Z" fill="#ffd5df"/></g><g transform="translate(428.13,513.75) scale(4.281499999999999) rotate(0)"><path d="M10 0H20L0 20V10L10 0Z" fill="#3658e5"/><path d="M20 10V20H10L20 10Z" fill="#3658e5"/></g><g transform="translate(342.5,599.38) scale(4.281499999999999) rotate(0)"><path d="M10 0H20V10L10 20H0V10L10 0Z" fill="#dde3fb"/></g><g transform="translate(428.13,599.38) scale(4.281499999999999) rotate(0)"><path d="M10 0H20L0 20V10L10 0Z" fill="#7189ed"/><path d="M20 10V20H10L20 10Z" fill="#7189ed"/></g><rect x="513.75" y="513.75" width="171.25" height="171.25" fill="#ffffff"/><g transform="translate(513.75,513.75) scale(4.281499999999999) rotate(0)"><path d="M10 0H20L0 20V10L10 0Z" fill="#e6fbfb"/><path d="M20 10V20H10L20 10Z" fill="#e6fbfb"/></g><g transform="translate(599.38,513.75) scale(4.281499999999999) rotate(0)"><path d="M10 0H20L0 20V10L10 0Z" fill="#ff7092"/><path d="M20 10V20H10L20 10Z" fill="#ff7092"/></g><g transform="translate(513.75,599.38) scale(4.281499999999999) rotate(0)"><path d="M10 0H20V10L10 20H0V10L10 0Z" fill="#d4f9f9"/></g><g transform="translate(599.38,599.38) scale(4.281499999999999) rotate(0)"><path d="M10 0H20V10L10 20H0V10L10 0Z" fill="#ffbbcb"/></g><g transform="translate(685,513.75) scale(8.5625) rotate(0)"><path d="M10 0H20L0 20V10L10 0Z" fill="#47e5e5"/><path d="M20 10V20H10L20 10Z" fill="#47e5e5"/></g><g transform="translate(856.25,513.75) scale(8.5625) rotate(0)"><path d="M10 0H20L0 20V10L10 0Z" fill="#a3f2f2"/><path d="M20 10V20H10L20 10Z" fill="#a3f2f2"/></g></g></svg>